<svg version="1.1" xmlns="http://www.w3.org/2000/svg" viewBox="0 0 801 441" width="1602" height="882">
  <!-- svg-source:excalidraw -->
  
  <defs>
    <style>
      @font-face {
        font-family: "Virgil";
        src: url("https://excalidraw.com/Virgil.woff2");
      }
      @font-face {
        font-family: "Cascadia";
        src: url("https://excalidraw.com/Cascadia.woff2");
      }
    </style>
  </defs>
  <rect x="0" y="0" width="801" height="441" fill="#ffffff"></rect><g stroke-linecap="round" transform="translate(275 396) rotate(0 14.5 14)"><path d="M0 0 C0 0, 0 0, 0 0 M0 0 C0 0, 0 0, 0 0 M-0.27 6.11 C0.92 4.05, 3.11 2.58, 4.81 1.13 M-0.66 6.53 C1.59 4.14, 3.47 2.54, 4.66 0.14 M-0.32 10.62 C2.91 8.71, 6.46 3.13, 10.76 -1.01 M-0.11 11.24 C4.76 7.25, 7.8 2.74, 11.17 -0.59 M1.2 18.26 C3.11 14.14, 7.35 9.92, 13.93 1.7 M0.86 18.26 C6.35 11.66, 12.62 4.74, 15.87 0.81 M-1.62 25.97 C6.78 17.99, 9.31 9.82, 19.66 0.2 M1.02 23.48 C6.75 16.72, 12.79 10.02, 20.31 0.35 M0.52 27.43 C8.25 21.15, 13.11 13.01, 25.9 -1.34 M1.68 29.66 C8.4 21.06, 15.7 11.2, 26.09 0.15 M8.17 28.25 C10.58 24.46, 19.01 16.89, 29.61 -0.55 M6.61 29.81 C16.26 18.47, 25.17 8.02, 31.11 1.71 M10.03 28.02 C16.78 23.71, 25.19 17.04, 28.43 8.03 M11.69 29.72 C18.04 20.44, 26.52 12.84, 30.09 7.24 M18.41 29.67 C19.93 24.09, 24.53 21.01, 32.67 13 M16.98 29.56 C19.96 25.02, 25.18 20.61, 31.21 13.98 M21.45 29.44 C25.82 25.68, 27.26 23.65, 31.63 19.56 M22.82 28.75 C24.98 25.37, 27.6 22.44, 30.16 19.81 M27.93 28.91 C28.88 28.16, 29.92 26.19, 30.54 25.38 M27.4 29.16 C28.66 28.12, 30.01 26.77, 30.6 25.61" stroke="#4c6ef5" stroke-width="0.5" fill="none"></path><path d="M-1.08 0.7 C9.06 0.81, 22.78 0.49, 29.03 -0.85 M-0.63 0.67 C7.26 -0.55, 11.91 -0.28, 28.99 0.89 M28.48 1.45 C28.38 6.46, 30.86 12.08, 28.92 29.03 M29.05 -0.56 C29.96 9.03, 29.35 19.58, 28.6 27.05 M27.43 29.4 C21.87 28.23, 12.55 27.49, 1.66 27.39 M29.56 28.53 C20.43 28.62, 13.79 27.5, 0.9 28.48 M-1.59 28.24 C-1.53 20.39, 0.64 14.66, -1.52 -1.97 M0.47 28.26 C-0.1 18.6, -0.02 8.45, 0.47 -0.31" stroke="#000000" stroke-width="1" fill="none"></path></g><g stroke-linecap="round" transform="translate(314.5 395) rotate(0 14.5 14)"><path d="M0 0 C0 0, 0 0, 0 0 M0 0 C0 0, 0 0, 0 0 M0.22 5.76 C0.27 4.66, 1.58 4.14, 4.44 0.36 M-0.62 6.3 C0.62 5.41, 1.9 3.84, 4.87 0.52 M1.55 10.67 C1.55 10.52, 5.22 6.24, 10.84 0.53 M-0.14 12.5 C4.3 7.31, 7.69 4.56, 10.85 -0.83 M-0.45 17.18 C5.79 15.58, 6.35 10.47, 15.02 1.23 M-0.4 18.22 C3.8 12.79, 8.29 8.03, 15.53 -0.62 M0.12 24.6 C7.55 18.32, 13.26 10.68, 22.58 -0.33 M-0.42 24.67 C4.51 19.76, 8.95 12.95, 22.02 0.74 M2.89 30.21 C9.66 20.63, 18.4 12.71, 25.73 1.6 M1.59 28.24 C8.26 19.7, 15.02 11.75, 27.09 0.82 M7.67 27.8 C15.8 17.7, 27.39 5.48, 29.08 3.18 M6.18 29.92 C12.44 23.42, 18.35 15.45, 30.27 1.28 M11.78 29.77 C19.72 21.81, 24.9 12.6, 31.24 8.35 M12.32 28.19 C18.57 20.12, 25.82 13.7, 30.17 7.22 M17.53 28.49 C22 24.24, 26.54 16.78, 28.9 12.76 M17.49 28.62 C20.16 26.57, 22.33 22.63, 31.21 13.43 M23.23 29.94 C23.8 26.09, 25.67 24.7, 31.31 20.6 M22.17 28.69 C25.76 25.29, 27.97 22.67, 31.02 19.95 M27.44 29.54 C28.59 28.21, 29.24 27.04, 30.95 25.02 M27.37 29.1 C28.85 27.91, 29.76 26.74, 30.91 25.43" stroke="#4c6ef5" stroke-width="0.5" fill="none"></path><path d="M0.66 0.73 C7.37 -0.05, 14.74 1.56, 28.42 0.5 M-0.16 0.84 C10.56 -0.51, 23.49 0.83, 29.24 0.02 M28.25 -0.94 C28.7 9.14, 30.29 14.13, 30.39 28 M28.36 -0.03 C30.04 6.43, 29.37 13.68, 28.5 28.32 M30.24 29.19 C20.94 28.65, 12.52 27.85, 1.46 28.29 M28.49 28.83 C18.29 28.25, 6.54 28.67, -0.71 28.28 M-1.08 26.6 C-0.95 15.72, 0.29 8.81, -1.15 -1.39 M0.42 28.93 C-1.13 16.84, -0.55 5, -0.41 -0.2" stroke="#000000" stroke-width="1" fill="none"></path></g><g stroke-linecap="round" transform="translate(356.5 394) rotate(0 14.5 14)"><path d="M0 0 C0 0, 0 0, 0 0 M0 0 C0 0, 0 0, 0 0 M0.54 7 C0.91 4.83, 2.8 3.01, 4.88 -0.4 M-0.56 6.24 C1.24 4.36, 3.31 1.91, 4.89 0.29 M1.3 12.61 C3.54 9.16, 5.78 6.52, 9.33 -0.29 M-0.18 12.79 C2.78 8.05, 6.82 5.72, 10.79 -0.42 M0.09 19.05 C3.88 16.55, 5.58 12.32, 15.36 1.38 M-0.2 17.48 C4.57 11.89, 11.08 7.09, 16.58 -0.62 M-0.13 23.56 C8.19 15.07, 11.66 10.99, 20.12 -0.53 M0.44 24.82 C5.6 17.63, 10.22 12.07, 21.69 0.91 M2.99 29.07 C8.81 19.04, 16.12 13.47, 27.61 1.29 M1.28 28.03 C10.46 19.46, 18.67 8.31, 26.97 1.27 M6.4 30.14 C12.44 20.96, 17.83 13.3, 28.95 0.44 M6.44 30.06 C12.57 21.55, 20.89 13.09, 29.82 0.79 M10.96 27.61 C16.14 22.6, 23.51 18.25, 31.66 5.86 M12.29 28.52 C17.68 22.42, 25.8 14.49, 30.56 8.37 M16.86 29.86 C18.15 26.68, 23.21 20.68, 31.71 13.88 M17.52 29.3 C22.1 23.77, 28.09 16.74, 31.13 13.83 M22.92 27.91 C25.11 24.9, 26.42 24.09, 29.32 20.83 M23.04 29.12 C24.88 27.19, 26.76 24.13, 30.7 19.62 M28.01 29.24 C28.61 28.35, 29.13 27.49, 30.47 25.82 M27.64 29.38 C28.97 27.74, 29.94 26.6, 30.95 25.35" stroke="#4c6ef5" stroke-width="0.5" fill="none"></path><path d="M0.44 0.94 C6.35 -0.04, 13.14 0.12, 30.43 0.94 M0.07 0.34 C6.9 0.52, 14.88 0.04, 29.74 0.04 M28.06 -1.82 C29.15 12.13, 27.7 19.41, 30.97 29.31 M28.05 -0.01 C28.75 5.7, 28.7 12.59, 29.32 27.77 M29.66 26.03 C18.2 28.68, 4.68 29.51, 0.54 26.36 M29.51 27.72 C21.04 27.42, 15.34 27.44, -0.48 28.08 M-1.96 27.38 C-2.17 23.18, -1.53 14.64, -1.74 1.35 M-0.48 28.66 C0.16 21.47, -0.03 15.47, -0.49 -0.84" stroke="#000000" stroke-width="1" fill="none"></path></g><g stroke-linecap="round" transform="translate(398.5 393) rotate(0 14.5 14)"><path d="M0 0 C0 0, 0 0, 0 0 M0 0 C0 0, 0 0, 0 0 M-0.37 6.92 C1.57 3.46, 3.5 1.74, 4.44 0.83 M-0.5 6.7 C1.38 4.93, 2.23 2.89, 5.3 0.61 M1.63 11.63 C4.4 8.03, 7.47 4.97, 11.07 -1.21 M-0.4 12.72 C3.75 9.32, 5.65 5.09, 11.18 -0.65 M-1.79 16.94 C6.11 12.1, 8.28 7.04, 15.38 1.51 M-0.57 18.13 C4.62 13.09, 10.72 6.68, 15.54 0.74 M-1.59 25.01 C8.85 16.13, 17.36 6.56, 22.01 -1.56 M0.69 23.94 C6.12 17.56, 13.9 9.46, 21.56 -0.47 M0.57 27.15 C8.11 18.66, 15.43 11.43, 27.36 -1.06 M1.57 29.47 C8.91 19.39, 16.12 10.95, 26.79 1.16 M6.02 30.76 C13.83 23.78, 16.71 16.39, 29.22 0.72 M7.07 30.27 C14.72 20.43, 23.22 9.95, 30.33 1.96 M12.75 29.37 C15.47 23.83, 23.21 18.4, 28.76 6.52 M12.53 29.18 C18.29 21.84, 25.5 13.94, 31.13 8.56 M15.02 27.71 C23.01 22.18, 27.76 17.6, 30.81 11.88 M17.56 30.04 C21.18 23.64, 26.88 17.01, 30.59 14.39 M22.95 28.29 C26.47 24.46, 29.51 22.76, 30.92 18.8 M22.29 28.69 C25.52 26.13, 27.37 22.52, 30.3 19.55 M27.08 29.5 C27.84 28.37, 28.62 27.74, 30.43 25.25 M27.34 29.41 C28.53 28.25, 29.49 27.33, 30.68 25.31" stroke="#82c91e" stroke-width="0.5" fill="none"></path><path d="M1.73 -1.15 C5.95 1.92, 15.98 -1.48, 29.84 1.86 M-0.69 -0.41 C5.74 0.43, 11.67 1.06, 29.27 0 M29.68 -1.36 C30.24 9.86, 27.09 17.52, 29.7 27.35 M28.51 0.48 C28.45 9.36, 29 19.06, 29.6 27.2 M30.87 26.64 C23.16 25.97, 18.64 26.33, -1.79 27.49 M28.94 27.72 C22.1 27.48, 13.55 28.66, 0.89 27.14 M0.41 28.26 C0.43 22.41, 0.22 16.78, -0.68 1.16 M0.53 28.27 C-0.73 16.24, -0.54 5.83, -0.16 -0.63" stroke="#000000" stroke-width="1" fill="none"></path></g><g stroke-linecap="round" transform="translate(441.5 392) rotate(0 14.5 14)"><path d="M0 0 C0 0, 0 0, 0 0 M0 0 C0 0, 0 0, 0 0 M0.16 6.64 C1.36 4.16, 2.53 2.33, 4.62 -0.18 M-0.64 6.44 C2 3.72, 3.66 1.6, 5.3 0.03 M-0.24 11.14 C2.2 10.33, 5.03 7.85, 10.93 -0.74 M0.92 11.86 C2.91 9.08, 6.47 5.53, 10.85 -0.78 M0.87 19.5 C6.03 10.57, 10.64 3.91, 16.51 1.18 M0.85 18.2 C4.77 12.75, 9.02 8.38, 15.37 -0.05 M-0.7 23.95 C5.86 17.85, 9.4 15.61, 19.86 0.43 M-0.35 23.87 C8.16 16.66, 14.47 6.68, 20.85 -0.21 M-0.63 29.92 C9.04 17.46, 20.36 6.65, 24.66 1.82 M1.88 28.08 C10.85 18.15, 20.89 6.58, 25.38 0.69 M6.74 31.16 C12.81 18.95, 23.34 11.26, 29.87 2.58 M6.68 29.42 C15.06 20.93, 22.41 10.28, 30.72 0.45 M13.58 27.68 C15.95 22.88, 21.45 20.51, 31.77 9.05 M11.57 28.7 C18.9 21.89, 26.8 12.98, 30.59 8.12 M18.25 30.86 C21.04 23.7, 24.27 22.47, 32.13 12.5 M16.37 28.67 C20.23 24.53, 23.35 21.05, 31.17 12.47 M21.67 29.27 C24.41 25.19, 27.63 21.43, 29.96 18.79 M23.06 28.9 C24.97 25.25, 27.6 22.85, 30.68 19.75 M27.21 29.66 C28.36 28.35, 29.76 27.02, 31.17 25.42 M27.54 29.26 C28.08 28.25, 29.01 27.86, 30.82 25.7" stroke="#82c91e" stroke-width="0.5" fill="none"></path><path d="M-1.64 -1.12 C7.43 -0.73, 14.48 -0.65, 27.23 -0.98 M0.08 -0.61 C10.7 -0.66, 19.21 -0.17, 28 0.94 M30.35 -1.38 C27.21 5.98, 28.04 14.31, 28.82 27.88 M28.16 0.68 C30 6.75, 28.29 16.2, 28.82 28.21 M29.5 28.97 C19.24 29.23, 12.82 26.19, 1.89 29.07 M28.2 28.13 C19.35 27.19, 11.03 28.57, -0.61 28.37 M-1.89 28.83 C-0.67 20.01, -1.64 12.08, -1.54 0.06 M-0.18 27.19 C0.19 20.11, 0.99 12.07, 0.69 -0.13" stroke="#000000" stroke-width="1" fill="none"></path></g><g stroke-linecap="round" transform="translate(265 359) rotate(0 108.5 36)"><path d="M1.72 -0.31 C84.69 1.78, 169.29 2, 217.44 0.85 M-0.82 0.82 C58.17 -1.62, 114.55 -2.39, 216.3 0.12 M218.5 -1.21 C217.28 19.84, 217.45 40.61, 215.11 72.83 M216.6 -0.77 C216.87 19.57, 215.9 39.07, 216.82 71.19 M217.62 73.21 C153.29 74.53, 89.82 71.97, -0.28 71.76 M217.81 71.53 C166.2 71.92, 117.14 71.43, -0.42 71.15 M0.61 72.97 C1.43 44.22, 0.86 17.21, 1.06 0.62 M-0.96 71.54 C-0.14 49.25, 1.05 25.78, -0.94 0.11" stroke="#000000" stroke-width="1" fill="none"></path></g><g transform="translate(299 362) rotate(0 58.5 12.5)"><text x="0" y="18" font-family="Virgil, Segoe UI Emoji" font-size="20px" fill="#000000" text-anchor="start" style="white-space: pre;" direction="ltr">event store</text></g><g stroke-linecap="round" transform="translate(313 86) rotate(0 65.5 21.5)"><path d="M-1.86 0.99 C28.39 1.55, 54.34 -1.56, 132.17 0 M-0.24 0.42 C35.05 -0.23, 70.16 0.44, 131.29 -0.83 M132.41 -1.88 C132.23 12.28, 130.69 25.5, 132.54 43.74 M130.11 0.42 C130.89 15.79, 131.14 33.01, 131.9 42.97 M132.37 41.51 C89.44 43.9, 46.01 40.59, 0.57 43.97 M131.67 43.44 C81.82 41.93, 33.51 42.06, -0.8 43.23 M-1.74 42.81 C-1.1 28.75, -1.24 12.34, -0.86 -1.94 M0.36 42.78 C1.18 31.86, -0.28 20.03, -0.96 0.69" stroke="#000000" stroke-width="1" fill="none"></path></g><g transform="translate(323 93) rotate(0 59 12.5)"><text x="0" y="18" font-family="Virgil, Segoe UI Emoji" font-size="20px" fill="#000000" text-anchor="start" style="white-space: pre;" direction="ltr">product 123</text></g><g stroke-linecap="round" transform="translate(189 168) rotate(0 64.5 19.5)"><path d="M1.49 1.56 C47.49 0.97, 95.18 -2.17, 128.67 0.55 M-0.12 0.34 C49.1 -0.66, 97.96 0.52, 128.89 0.85 M129.61 -0.14 C130.93 6.99, 127.65 18.39, 127.9 38.11 M129.94 -0.11 C128.84 13.59, 128.93 28.58, 129.27 38.42 M130.44 40.19 C80.49 37.95, 29.97 39.38, -1.7 38.97 M129.45 38.94 C100.85 39.24, 73.14 39.44, -0.4 38.18 M1.95 39.99 C1.64 26.87, -1.43 11.69, -0.56 -0.73 M0.73 38.66 C0.03 30.57, -0.7 20.98, 0.62 0.21" stroke="#000000" stroke-width="1" fill="none"></path></g><g transform="translate(208 175.5) rotate(0 44.5 12.5)"><text x="0" y="18" font-family="Virgil, Segoe UI Emoji" font-size="20px" fill="#000000" text-anchor="start" style="white-space: pre;" direction="ltr">projector</text></g><g transform="translate(243 161) rotate(0 31 -26)" stroke="none"><path fill="#364fc7" d="M -1.27,0.31 Q -1.27,0.31 -1.56,-0.83 -1.84,-1.98 -2.04,-3.47 -2.23,-4.97 -2.25,-6.13 -2.27,-7.29 -1.86,-8.42 -1.45,-9.55 -1.06,-11.42 -0.66,-13.29 -0.13,-15.09 0.40,-16.88 0.89,-17.91 1.38,-18.95 1.94,-20.14 2.50,-21.33 2.93,-22.56 3.35,-23.79 3.92,-24.74 4.49,-25.69 5.42,-26.90 6.35,-28.12 7.37,-29.58 8.39,-31.04 9.37,-32.10 10.34,-33.16 11.33,-34.17 12.33,-35.18 13.33,-36.18 14.33,-37.18 15.34,-38.19 16.36,-39.20 17.39,-39.82 18.42,-40.43 19.47,-41.46 20.53,-42.48 21.51,-43.01 22.50,-43.54 23.64,-44.24 24.79,-44.94 25.83,-45.48 26.87,-46.02 28.15,-46.70 29.43,-47.39 30.72,-47.78 32.01,-48.16 33.27,-48.87 34.53,-49.57 35.81,-49.89 37.09,-50.21 38.23,-50.49 39.37,-50.78 40.68,-50.99 42.00,-51.21 43.55,-51.71 45.10,-52.22 46.67,-52.26 48.24,-52.30 49.81,-52.55 51.38,-52.80 52.72,-53.01 54.06,-53.23 55.14,-53.26 56.22,-53.29 57.74,-53.30 59.25,-53.31 61.12,-53.31 62.99,-53.31 63.20,-53.27 63.41,-53.24 63.60,-53.14 63.79,-53.04 63.94,-52.89 64.08,-52.73 64.17,-52.54 64.26,-52.35 64.28,-52.14 64.31,-51.92 64.26,-51.72 64.22,-51.51 64.11,-51.33 64.00,-51.14 63.83,-51.01 63.67,-50.87 63.47,-50.79 63.28,-50.71 63.07,-50.70 62.85,-50.69 62.65,-50.75 62.44,-50.80 62.27,-50.92 62.09,-51.04 61.96,-51.21 61.83,-51.38 61.77,-51.58 61.70,-51.78 61.70,-52.00 61.70,-52.21 61.77,-52.41 61.83,-52.61 61.96,-52.78 62.09,-52.95 62.27,-53.07 62.44,-53.19 62.65,-53.24 62.85,-53.30 63.07,-53.29 63.28,-53.28 63.47,-53.20 63.67,-53.12 63.83,-52.98 64.00,-52.85 64.11,-52.66 64.22,-52.48 64.26,-52.27 64.31,-52.07 64.28,-51.85 64.26,-51.64 64.17,-51.45 64.08,-51.26 63.94,-51.10 63.79,-50.95 63.60,-50.85 63.41,-50.75 63.20,-50.72 62.99,-50.68 62.99,-50.68 63.00,-50.68 60.63,-50.68 58.26,-50.68 56.77,-50.66 55.28,-50.65 53.78,-50.49 52.28,-50.34 50.77,-50.01 49.26,-49.68 47.79,-49.66 46.32,-49.65 45.10,-49.52 43.88,-49.40 42.09,-48.86 40.29,-48.32 38.46,-47.92 36.62,-47.52 35.62,-47.03 34.62,-46.54 33.56,-46.07 32.50,-45.60 31.23,-45.01 29.96,-44.42 28.49,-43.90 27.01,-43.38 25.53,-42.40 24.04,-41.41 23.09,-40.91 22.14,-40.42 21.12,-39.43 20.09,-38.44 19.12,-37.88 18.15,-37.31 17.17,-36.32 16.19,-35.33 15.19,-34.33 14.19,-33.33 13.22,-32.34 12.24,-31.35 11.37,-30.41 10.50,-29.47 9.88,-28.42 9.26,-27.38 8.11,-26.08 6.95,-24.77 6.28,-23.61 5.61,-22.45 5.03,-21.06 4.45,-19.67 4.02,-18.61 3.59,-17.55 2.90,-16.28 2.21,-15.00 2.00,-13.69 1.79,-12.37 1.51,-11.25 1.23,-10.12 0.98,-8.87 0.73,-7.62 0.55,-6.40 0.38,-5.19 0.54,-3.90 0.69,-2.61 0.98,-1.46 1.27,-0.31 1.29,-0.16 1.31,-0.00 1.29,0.15 1.27,0.31 1.22,0.45 1.16,0.60 1.07,0.73 0.98,0.86 0.86,0.97 0.74,1.07 0.60,1.15 0.46,1.22 0.31,1.26 0.16,1.30 0.00,1.30 -0.15,1.30 -0.30,1.26 -0.46,1.22 -0.60,1.15 -0.74,1.08 -0.86,0.97 -0.98,0.87 -1.07,0.74 -1.16,0.61 -1.21,0.46 -1.27,0.31 -1.27,0.31 L -1.27,0.31 Z"></path></g><g transform="translate(299 102) rotate(0 6 6)" stroke="none"><path d="M-0.68 0.98 L2.55 -0.15 L2.78 -1.45 L3.89 1.54 L3.43 1.44 L3.95 -0.32 L4.41 2.09 L7.53 2.54 L7.17 3.57 L6.72 4.04 L10.47 2.69 L8.95 3.82 L10.38 3.9 L10.95 5.2 L13.28 3.39 L11.75 4.18 L12.88 8.98 L8.71 7.46 L7.19 8.22 L7.51 7.41 L8.52 10.34 L4.11 9.1 L6.52 10.23 L5.81 9.29 L1.14 9.51 L0.21 12.42 L2.63 12.46 L-0.76 10.62 L0.56 14.05 L1.12 10.71 L1.83 12.95 L0.39 9.18 L-1.37 8.49 L1.91 7.24 L-1.53 7.72 L-1.16 4.76 L-0.82 4.37 L1.67 3.32 L1.89 3.83 L2.19 2.16 L-0.95 3.22 L-1.51 1.23 L-0.58 2.31 L-1 1.15 L1.07 -0.41 L1.45 0.25" stroke="none" stroke-width="0" fill="#4c6ef5" fill-rule="evenodd"></path><path fill="#364fc7" d="M 0.31,-1.27 Q 0.31,-1.27 1.46,-0.98 2.61,-0.69 4.16,-0.17 5.71,0.34 7.16,1.01 8.62,1.68 9.64,2.10 10.67,2.52 11.75,3.47 12.83,4.43 12.52,5.63 12.21,6.84 11.35,7.63 10.49,8.43 9.34,9.18 8.20,9.93 7.17,10.47 6.14,11.01 5.14,11.51 4.13,12.02 3.12,12.53 2.11,13.03 1.29,13.43 0.47,13.83 0.32,13.83 0.16,13.83 0.00,13.80 -0.14,13.76 -0.28,13.69 -0.42,13.62 -0.54,13.51 -0.66,13.41 -0.75,13.28 -0.84,13.15 -0.90,13.00 -0.95,12.85 -0.97,12.69 -0.99,12.54 -0.98,12.38 -0.96,12.22 -0.90,12.07 -0.85,11.93 -0.76,11.80 -0.67,11.66 -0.55,11.56 -0.43,11.45 -0.29,11.38 -0.15,11.30 -0.00,11.27 0.14,11.23 -0.58,9.98 -1.30,8.73 -1.20,7.01 -1.09,5.30 -0.59,4.22 -0.10,3.14 0.23,2.16 0.57,1.18 0.37,1.24 0.16,1.30 -0.04,1.29 -0.25,1.28 -0.45,1.21 -0.65,1.13 -0.82,1.00 -0.98,0.86 -1.09,0.68 -1.21,0.50 -1.26,0.30 -1.30,0.09 -1.29,-0.11 -1.27,-0.32 -1.18,-0.52 -1.10,-0.71 -0.95,-0.87 -0.81,-1.03 -0.62,-1.13 -0.44,-1.23 -0.23,-1.27 -0.02,-1.31 0.18,-1.28 0.39,-1.25 0.58,-1.15 0.77,-1.06 0.92,-0.90 1.07,-0.75 1.16,-0.56 1.25,-0.37 1.28,-0.16 1.31,0.04 1.27,0.25 1.22,0.46 1.12,0.64 1.01,0.83 0.85,0.97 0.69,1.11 0.50,1.19 0.30,1.27 0.09,1.29 -0.11,1.30 -0.32,1.25 -0.52,1.20 -0.70,1.08 -0.88,0.97 -1.01,0.80 -1.14,0.63 -1.22,0.43 -1.29,0.23 -1.29,0.02 -1.29,-0.18 -1.23,-0.39 -1.17,-0.59 -1.04,-0.76 -0.92,-0.93 -0.74,-1.05 -0.57,-1.18 -0.57,-1.18 -0.57,-1.18 0.35,0.09 1.27,1.36 1.75,2.59 2.22,3.81 1.66,4.99 1.09,6.16 1.20,7.44 1.31,8.71 1.29,10.16 1.28,11.60 0.88,12.72 0.47,13.83 0.32,13.83 0.16,13.83 0.00,13.80 -0.14,13.76 -0.28,13.69 -0.42,13.62 -0.54,13.51 -0.66,13.41 -0.75,13.28 -0.84,13.15 -0.90,13.00 -0.95,12.85 -0.97,12.69 -0.99,12.54 -0.98,12.38 -0.96,12.22 -0.90,12.07 -0.85,11.93 -0.76,11.80 -0.67,11.66 -0.55,11.56 -0.43,11.45 -0.29,11.38 -0.15,11.30 -0.00,11.27 0.14,11.23 1.07,10.81 2.00,10.39 3.00,9.89 3.99,9.39 4.98,8.89 5.96,8.39 7.36,7.42 8.76,6.46 9.77,5.73 10.78,5.01 9.67,4.77 8.56,4.54 7.66,3.79 6.77,3.03 5.61,2.84 4.46,2.65 3.22,2.25 1.98,1.84 0.83,1.56 -0.31,1.27 -0.46,1.21 -0.61,1.16 -0.74,1.07 -0.87,0.98 -0.97,0.86 -1.08,0.74 -1.15,0.60 -1.22,0.46 -1.26,0.30 -1.30,0.15 -1.30,-0.00 -1.30,-0.16 -1.26,-0.31 -1.22,-0.46 -1.15,-0.60 -1.07,-0.74 -0.97,-0.86 -0.86,-0.98 -0.73,-1.07 -0.60,-1.16 -0.45,-1.22 -0.30,-1.27 -0.15,-1.29 0.00,-1.31 0.16,-1.29 0.31,-1.27 0.31,-1.27 L 0.31,-1.27 Z"></path></g><g transform="translate(456 107) rotate(0 18 32)" stroke="none"><path fill="#5c940d" d="M -0.92,-0.92 Q -0.92,-0.92 -0.34,-1.51 0.24,-2.09 1.61,-2.61 2.98,-3.13 4.09,-3.20 5.20,-3.28 6.73,-3.29 8.25,-3.31 10.04,-3.31 11.83,-3.31 13.29,-3.31 14.75,-3.31 16.25,-3.31 17.74,-3.31 18.95,-3.31 20.16,-3.31 21.49,-3.31 22.81,-3.31 24.00,-3.31 25.18,-3.31 26.50,-3.31 27.82,-3.31 29.04,-3.30 30.25,-3.29 31.64,-2.88 33.02,-2.47 34.16,-2.40 35.30,-2.32 36.43,-1.89 37.56,-1.46 38.98,-0.97 40.39,-0.48 41.50,0.02 42.60,0.52 43.62,1.02 44.64,1.52 45.88,2.44 47.12,3.36 48.13,4.34 49.14,5.31 49.98,6.05 50.82,6.79 51.56,7.59 52.29,8.39 53.26,9.38 54.22,10.37 55.09,11.64 55.96,12.91 56.51,14.25 57.05,15.59 57.81,17.22 58.57,18.86 59.12,20.51 59.67,22.17 60.33,23.90 60.98,25.63 61.12,27.29 61.26,28.96 61.28,30.08 61.30,31.20 61.54,32.47 61.78,33.75 61.59,35.33 61.41,36.91 61.37,38.34 61.33,39.77 61.31,41.41 61.30,43.05 60.89,44.51 60.48,45.98 60.04,47.39 59.61,48.80 59.10,49.88 58.59,50.97 58.01,52.28 57.43,53.59 56.07,54.57 54.71,55.55 52.91,56.88 51.11,58.21 50.09,58.78 49.08,59.34 47.10,60.01 45.13,60.67 43.77,61.12 42.41,61.57 40.66,62.06 38.90,62.55 37.32,63.04 35.74,63.52 33.18,64.12 30.61,64.72 28.80,65.16 26.99,65.61 25.58,65.81 24.17,66.01 22.98,66.10 21.78,66.19 20.40,66.22 19.02,66.26 17.58,66.27 16.14,66.29 15.10,66.56 14.06,66.84 12.60,66.98 11.13,67.12 9.95,67.17 8.76,67.23 7.68,67.25 6.60,67.27 4.55,67.29 2.50,67.30 0.61,67.30 -1.27,67.31 -2.34,67.31 -3.41,67.31 -5.17,67.31 -6.92,67.31 -8.57,66.98 -10.21,66.66 -11.62,66.09 -13.03,65.53 -14.69,64.67 -16.35,63.81 -17.54,63.12 -18.74,62.42 -19.55,61.49 -20.36,60.55 -21.42,59.51 -22.48,58.46 -22.83,57.20 -23.18,55.94 -23.69,54.44 -24.20,52.94 -24.71,51.41 -25.22,49.88 -25.26,48.31 -25.30,46.75 -25.30,45.24 -25.31,43.74 -25.20,42.45 -25.09,41.16 -25.70,39.65 -26.30,38.15 -26.29,37.93 -26.28,37.72 -26.20,37.52 -26.13,37.33 -25.99,37.16 -25.85,37.00 -25.67,36.89 -25.49,36.78 -25.28,36.73 -25.08,36.68 -24.86,36.71 -24.65,36.73 -24.46,36.81 -24.27,36.90 -24.11,37.05 -23.96,37.19 -23.85,37.38 -23.75,37.57 -23.72,37.78 -23.68,37.99 -23.71,38.20 -23.75,38.41 -23.85,38.59 -23.94,38.78 -24.10,38.93 -24.25,39.08 -24.44,39.17 -24.63,39.26 -24.85,39.28 -25.06,39.31 -25.26,39.26 -25.47,39.22 -25.66,39.11 -25.84,39.00 -25.98,38.84 -26.12,38.68 -26.20,38.48 -26.28,38.29 -26.29,38.07 -26.30,37.86 -26.25,37.66 -26.19,37.45 -26.07,37.28 -25.95,37.10 -25.79,36.97 -25.62,36.84 -25.42,36.77 -25.22,36.70 -25.00,36.70 -24.79,36.70 -24.59,36.76 -24.39,36.83 -24.22,36.96 -24.05,37.09 -23.93,37.26 -23.81,37.44 -23.75,37.64 -23.69,37.84 -23.69,37.84 -23.69,37.84 -23.29,39.07 -22.90,40.31 -22.79,41.52 -22.68,42.73 -22.68,44.23 -22.68,45.73 -22.66,47.20 -22.65,48.67 -22.53,49.86 -22.41,51.05 -21.97,52.22 -21.53,53.39 -21.07,54.44 -20.61,55.49 -20.14,56.85 -19.67,58.20 -18.62,59.18 -17.58,60.17 -16.36,60.82 -15.13,61.48 -13.80,62.23 -12.46,62.97 -10.90,63.58 -9.33,64.18 -8.13,64.43 -6.92,64.68 -5.17,64.68 -3.41,64.68 -2.34,64.68 -1.27,64.68 -0.10,64.68 1.05,64.68 2.78,64.67 4.50,64.67 6.57,64.64 8.64,64.60 9.77,64.55 10.90,64.50 12.16,64.39 13.43,64.29 14.77,63.97 16.10,63.66 17.53,63.65 18.96,63.63 20.28,63.60 21.60,63.57 22.70,63.49 23.80,63.41 25.08,63.24 26.36,63.06 28.18,62.61 29.99,62.16 32.48,61.59 34.97,61.01 36.58,60.52 38.20,60.02 39.89,59.55 41.59,59.08 42.94,58.63 44.30,58.18 46.05,57.61 47.81,57.04 49.63,55.96 51.46,54.89 52.45,54.07 53.44,53.25 54.46,52.23 55.48,51.20 56.20,50.04 56.93,48.88 57.40,47.23 57.88,45.59 58.29,44.25 58.70,42.92 58.70,41.32 58.70,39.73 58.75,38.21 58.79,36.68 58.74,34.78 58.69,32.87 58.67,31.53 58.66,30.19 58.61,29.01 58.57,27.83 58.36,26.48 58.15,25.13 57.69,24.14 57.24,23.16 56.68,21.48 56.12,19.81 55.31,17.97 54.49,16.14 54.02,15.05 53.56,13.96 52.94,13.06 52.32,12.16 51.35,11.17 50.37,10.19 49.50,8.98 48.62,7.78 47.48,7.02 46.35,6.25 45.43,5.40 44.50,4.55 43.51,4.06 42.52,3.57 41.50,3.08 40.49,2.60 39.40,2.15 38.31,1.70 36.68,0.98 35.06,0.26 33.84,0.18 32.62,0.11 30.84,-0.28 29.07,-0.68 27.65,-0.68 26.22,-0.68 25.15,-0.68 24.07,-0.68 22.64,-0.68 21.22,-0.68 20.13,-0.68 19.04,-0.68 17.54,-0.68 16.04,-0.68 14.56,-0.68 13.08,-0.68 11.67,-0.68 10.26,-0.68 8.76,-0.68 7.26,-0.68 5.81,-0.65 4.36,-0.62 3.21,-0.41 2.05,-0.20 1.49,0.36 0.92,0.92 0.80,1.02 0.67,1.12 0.53,1.18 0.39,1.25 0.23,1.28 0.07,1.31 -0.07,1.30 -0.23,1.29 -0.38,1.24 -0.53,1.19 -0.67,1.11 -0.80,1.03 -0.92,0.92 -1.03,0.80 -1.11,0.67 -1.19,0.53 -1.24,0.38 -1.29,0.23 -1.30,0.07 -1.31,-0.07 -1.28,-0.23 -1.25,-0.39 -1.18,-0.53 -1.12,-0.67 -1.02,-0.80 -0.92,-0.92 -0.92,-0.92 L -0.92,-0.92 Z"></path></g><g transform="translate(424 150) rotate(0 6 -7)" stroke="none"><path d="M-1.81 1.11 L-1.62 -1.56 L-1.09 -1.42 L-1.12 -4.41 L1.41 -5.68 L1.01 -6.95 L1.98 -8.92 L2.73 -9.58 L2.22 -12.68 L1.29 -11.01 L4.05 -11.84 L2.26 -11.26 L5.7 -13.58 L6.54 -14.68 L6.72 -12.4 L7.32 -9.92 L7.95 -10.11 L8.11 -8.94 L10.56 -6.82 L10.73 -6.02 L12.04 -6.97 L10.32 -5.74 L12.17 -3.31 L11.33 -4.01 L12.06 -1.88 L9.52 -1.04 L9.13 -4.06 L7.96 -1.36 L4.1 -4.54 L4.04 -3.8 L5.02 -0.31 L1.45 -3.53 L0.25 -2.67 L-1.79 -4 L-1.56 -1.25" stroke="none" stroke-width="0" fill="#40c057" fill-rule="evenodd"></path><path fill="#5c940d" d="M -1.28,-0.25 Q -1.28,-0.25 -1.00,-1.69 -0.71,-3.13 -0.22,-5.07 0.26,-7.02 0.70,-8.04 1.15,-9.07 1.44,-10.31 1.72,-11.55 2.96,-12.97 4.20,-14.40 5.65,-13.94 7.10,-13.49 7.86,-12.09 8.62,-10.70 9.46,-9.67 10.29,-8.64 10.90,-7.57 11.51,-6.50 11.76,-5.36 12.01,-4.22 12.42,-3.85 12.83,-3.49 12.83,-3.33 12.83,-3.17 12.80,-3.01 12.76,-2.86 12.69,-2.72 12.62,-2.58 12.51,-2.46 12.41,-2.34 12.28,-2.25 12.15,-2.16 12.01,-2.10 11.86,-2.04 11.70,-2.02 11.54,-2.00 11.39,-2.01 11.23,-2.03 11.08,-2.09 10.93,-2.14 10.80,-2.23 10.67,-2.32 10.56,-2.43 10.46,-2.55 10.38,-2.69 10.31,-2.83 10.27,-2.98 10.23,-3.14 9.06,-2.41 7.89,-1.69 6.63,-1.48 5.36,-1.27 3.70,-1.02 2.03,-0.76 1.62,-0.13 1.21,0.48 1.10,0.67 0.99,0.85 0.83,0.99 0.67,1.12 0.47,1.20 0.27,1.28 0.06,1.29 -0.14,1.30 -0.35,1.24 -0.55,1.19 -0.73,1.07 -0.90,0.95 -1.03,0.78 -1.16,0.61 -1.22,0.41 -1.29,0.20 -1.29,-0.00 -1.29,-0.21 -1.22,-0.41 -1.15,-0.61 -1.02,-0.78 -0.90,-0.95 -0.72,-1.07 -0.54,-1.19 -0.34,-1.24 -0.13,-1.30 0.07,-1.29 0.28,-1.28 0.48,-1.20 0.68,-1.12 0.84,-0.98 1.00,-0.84 1.11,-0.66 1.22,-0.48 1.26,-0.27 1.31,-0.06 1.28,0.14 1.26,0.35 1.17,0.54 1.08,0.74 0.93,0.89 0.79,1.04 0.60,1.14 0.41,1.24 0.20,1.27 -0.00,1.31 -0.21,1.27 -0.42,1.24 -0.61,1.14 -0.79,1.04 -0.94,0.88 -1.08,0.73 -1.17,0.54 -1.26,0.34 -1.28,0.13 -1.31,-0.07 -1.26,-0.28 -1.21,-0.49 -1.21,-0.48 -1.21,-0.48 0.87,-1.98 2.96,-3.47 4.32,-3.88 5.67,-4.29 6.77,-4.30 7.86,-4.32 9.23,-4.30 10.60,-4.27 11.71,-3.88 12.83,-3.49 12.83,-3.33 12.83,-3.17 12.80,-3.01 12.76,-2.86 12.69,-2.72 12.62,-2.58 12.51,-2.46 12.41,-2.34 12.28,-2.25 12.15,-2.16 12.01,-2.10 11.86,-2.04 11.70,-2.02 11.54,-2.00 11.39,-2.01 11.23,-2.03 11.08,-2.09 10.93,-2.14 10.80,-2.23 10.67,-2.32 10.56,-2.43 10.46,-2.55 10.38,-2.69 10.31,-2.83 10.27,-2.98 10.23,-3.13 9.80,-4.06 9.37,-4.99 8.83,-5.98 8.29,-6.96 7.28,-8.25 6.27,-9.53 5.65,-10.75 5.02,-11.97 4.51,-10.79 3.99,-9.62 3.36,-7.88 2.73,-6.14 2.29,-4.38 1.86,-2.61 1.57,-1.18 1.28,0.25 1.23,0.40 1.18,0.55 1.10,0.69 1.02,0.82 0.90,0.93 0.79,1.04 0.65,1.12 0.51,1.20 0.36,1.25 0.21,1.29 0.05,1.30 -0.10,1.30 -0.25,1.27 -0.41,1.24 -0.55,1.18 -0.69,1.11 -0.82,1.01 -0.94,0.91 -1.03,0.78 -1.13,0.66 -1.19,0.51 -1.26,0.37 -1.28,0.21 -1.31,0.05 -1.29,-0.09 -1.28,-0.25 -1.28,-0.25 L -1.28,-0.25 Z"></path></g><g transform="translate(481 64.5) rotate(0 84 20)"><text x="0" y="14" font-family="Virgil, Segoe UI Emoji" font-size="16px" fill="#5c940d" text-anchor="start" style="white-space: pre;" direction="ltr">3, 4. business logic</text><text x="0" y="34" font-family="Virgil, Segoe UI Emoji" font-size="16px" fill="#5c940d" text-anchor="start" style="white-space: pre;" direction="ltr">results in new events</text></g><g transform="translate(537 165) rotate(0 -13.5 115.5)" stroke="none"><path fill="#5c940d" d="M 0.72,-1.09 Q 0.72,-1.09 1.59,-0.51 2.45,0.05 3.55,1.29 4.65,2.52 5.58,3.53 6.50,4.54 7.25,5.75 7.99,6.96 8.97,8.41 9.95,9.85 10.67,11.15 11.38,12.44 11.95,13.46 12.52,14.48 13.39,15.43 14.26,16.38 14.88,17.42 15.50,18.47 16.22,19.62 16.94,20.78 17.71,21.99 18.49,23.19 19.01,24.32 19.54,25.45 20.48,26.80 21.42,28.15 22.03,29.69 22.64,31.22 23.11,32.34 23.58,33.46 24.29,34.98 24.99,36.50 25.52,38.00 26.05,39.51 26.80,41.27 27.55,43.03 27.78,44.16 28.01,45.29 28.38,46.77 28.75,48.25 28.92,49.33 29.09,50.41 29.42,51.92 29.74,53.43 29.98,55.48 30.22,57.52 30.26,59.52 30.29,61.52 30.55,62.91 30.82,64.29 30.97,65.67 31.12,67.04 31.20,69.40 31.28,71.77 31.28,73.27 31.29,74.77 31.30,76.56 31.30,78.35 31.30,80.26 31.31,82.17 31.31,84.13 31.31,86.09 31.31,87.79 31.31,89.49 31.31,91.65 31.31,93.80 31.31,95.58 31.31,97.36 31.31,98.98 31.31,100.60 31.31,102.15 31.31,103.70 31.31,105.22 31.31,106.75 31.31,107.97 31.31,109.19 31.01,110.97 30.71,112.75 30.60,113.99 30.48,115.22 30.43,116.59 30.38,117.96 30.36,119.12 30.34,120.28 30.33,121.35 30.32,122.42 30.32,124.05 30.31,125.68 30.01,128.05 29.70,130.41 29.54,132.19 29.38,133.96 29.35,135.78 29.32,137.59 29.32,139.27 29.31,140.96 29.31,142.13 29.30,143.31 28.89,145.07 28.48,146.83 28.41,148.01 28.34,149.20 28.33,150.72 28.31,152.25 27.94,153.57 27.57,154.88 27.47,156.06 27.37,157.23 26.91,158.39 26.46,159.54 26.05,161.09 25.63,162.65 25.48,164.01 25.32,165.37 24.88,166.49 24.44,167.60 23.61,169.03 22.78,170.46 21.75,171.75 20.71,173.03 20.23,174.20 19.74,175.38 18.72,176.71 17.70,178.03 16.77,179.27 15.84,180.51 14.85,181.97 13.86,183.42 12.50,185.02 11.13,186.62 10.24,187.66 9.34,188.69 8.48,189.48 7.62,190.27 6.46,191.49 5.31,192.70 4.81,193.79 4.31,194.88 3.43,196.01 2.55,197.15 1.60,198.15 0.66,199.15 -0.06,199.99 -0.79,200.82 -1.82,201.85 -2.84,202.88 -3.73,203.91 -4.61,204.94 -5.55,205.70 -6.49,206.45 -7.42,207.34 -8.35,208.23 -9.33,209.20 -10.31,210.16 -11.27,211.24 -12.24,212.31 -13.34,212.91 -14.45,213.51 -15.40,214.38 -16.35,215.25 -17.81,216.27 -19.27,217.30 -20.62,218.17 -21.98,219.03 -23.57,219.80 -25.17,220.57 -26.63,221.50 -28.09,222.42 -29.04,222.93 -30.00,223.43 -30.98,223.93 -31.96,224.43 -33.57,225.04 -35.18,225.64 -36.71,226.51 -38.24,227.37 -39.49,227.69 -40.73,228.00 -41.92,228.60 -43.11,229.19 -44.61,229.70 -46.11,230.22 -47.52,230.65 -48.94,231.08 -50.43,231.58 -51.92,232.07 -54.45,232.19 -56.98,232.31 -57.19,232.28 -57.40,232.24 -57.59,232.15 -57.78,232.05 -57.93,231.89 -58.08,231.74 -58.17,231.55 -58.26,231.36 -58.28,231.15 -58.31,230.94 -58.26,230.73 -58.22,230.52 -58.11,230.34 -58.00,230.15 -57.84,230.01 -57.68,229.88 -57.48,229.80 -57.29,229.71 -57.08,229.70 -56.86,229.69 -56.66,229.74 -56.45,229.80 -56.28,229.92 -56.10,230.03 -55.97,230.20 -55.84,230.37 -55.77,230.57 -55.70,230.77 -55.70,230.98 -55.70,231.20 -55.76,231.40 -55.83,231.60 -55.96,231.77 -56.08,231.94 -56.26,232.06 -56.43,232.18 -56.64,232.24 -56.84,232.30 -57.05,232.29 -57.27,232.28 -57.46,232.20 -57.66,232.13 -57.83,231.99 -57.99,231.85 -58.10,231.67 -58.21,231.49 -58.26,231.28 -58.31,231.08 -58.28,230.87 -58.26,230.65 -58.18,230.46 -58.09,230.27 -57.94,230.11 -57.80,229.96 -57.61,229.86 -57.42,229.75 -57.22,229.72 -57.01,229.68 -57.01,229.68 -57.01,229.68 -54.47,229.55 -51.93,229.41 -50.75,228.97 -49.58,228.53 -48.48,228.10 -47.39,227.67 -46.19,227.55 -44.99,227.42 -43.80,227.05 -42.62,226.67 -41.59,226.06 -40.57,225.45 -39.36,224.80 -38.16,224.15 -37.19,223.69 -36.23,223.23 -34.69,222.66 -33.15,222.09 -31.27,221.11 -29.39,220.14 -27.86,219.18 -26.32,218.21 -24.97,217.60 -23.62,216.99 -22.25,216.11 -20.88,215.22 -19.51,214.28 -18.15,213.33 -17.06,212.35 -15.97,211.37 -14.40,210.52 -12.83,209.67 -12.01,208.50 -11.19,207.34 -10.19,206.36 -9.19,205.38 -7.98,204.51 -6.78,203.64 -5.98,202.54 -5.18,201.44 -4.20,200.46 -3.22,199.49 -2.24,198.44 -1.26,197.39 -0.38,196.46 0.48,195.52 1.11,194.61 1.74,193.70 2.38,192.81 3.03,191.91 3.91,190.64 4.79,189.37 5.81,188.39 6.83,187.40 8.01,186.13 9.19,184.86 10.40,183.47 11.60,182.08 12.61,180.60 13.61,179.12 14.66,177.72 15.71,176.32 16.54,175.29 17.36,174.25 18.04,172.79 18.72,171.33 19.60,170.26 20.48,169.20 21.20,168.05 21.92,166.91 22.35,165.49 22.77,164.08 23.02,162.79 23.28,161.49 23.60,160.20 23.92,158.91 24.35,157.91 24.78,156.92 25.02,155.27 25.27,153.63 25.48,152.43 25.69,151.23 25.70,150.16 25.72,149.10 25.79,147.79 25.87,146.48 26.28,144.86 26.69,143.25 26.69,141.39 26.69,139.54 26.70,137.59 26.71,135.63 26.79,133.92 26.87,132.21 27.00,131.02 27.14,129.83 27.41,127.75 27.68,125.68 27.69,124.04 27.70,122.40 27.71,121.32 27.71,120.24 27.74,119.05 27.76,117.86 27.81,116.42 27.87,114.97 28.00,113.64 28.13,112.30 28.40,110.75 28.68,109.19 28.68,107.97 28.68,106.75 28.68,105.22 28.68,103.70 28.68,102.15 28.68,100.60 28.68,98.98 28.68,97.36 28.68,95.58 28.68,93.80 28.68,91.65 28.68,89.49 28.68,87.79 28.68,86.10 28.68,84.13 28.68,82.17 28.68,80.27 28.68,78.36 28.67,76.57 28.67,74.79 28.66,73.30 28.65,71.80 28.58,69.55 28.51,67.30 28.41,66.20 28.32,65.11 28.00,64.04 27.68,62.98 27.66,61.28 27.65,59.58 27.57,57.74 27.50,55.90 27.05,54.28 26.61,52.66 26.45,50.90 26.29,49.15 25.93,48.13 25.57,47.10 25.36,45.60 25.15,44.09 24.70,43.09 24.24,42.08 23.78,40.39 23.31,38.71 22.81,37.35 22.31,36.00 21.40,34.69 20.49,33.38 19.97,31.92 19.45,30.47 18.89,29.27 18.34,28.07 17.40,26.77 16.47,25.47 15.93,24.25 15.39,23.03 14.39,21.54 13.39,20.04 12.86,19.09 12.32,18.13 11.36,17.08 10.40,16.03 9.41,14.51 8.42,12.99 7.95,11.69 7.47,10.39 6.65,9.63 5.83,8.87 5.13,7.50 4.42,6.13 3.47,5.04 2.52,3.95 1.75,3.09 0.99,2.24 0.13,1.66 -0.72,1.09 -0.84,0.98 -0.96,0.88 -1.06,0.75 -1.15,0.62 -1.21,0.48 -1.26,0.33 -1.29,0.17 -1.31,0.02 -1.29,-0.13 -1.28,-0.29 -1.22,-0.44 -1.17,-0.59 -1.08,-0.72 -0.99,-0.85 -0.88,-0.96 -0.76,-1.06 -0.62,-1.14 -0.48,-1.22 -0.33,-1.26 -0.17,-1.30 -0.02,-1.30 0.13,-1.30 0.29,-1.27 0.44,-1.23 0.58,-1.16 0.72,-1.09 0.72,-1.09 L 0.72,-1.09 Z"></path></g><g transform="translate(261 408) rotate(0 -32 -98.5)" stroke="none"><path fill="#364fc7" d="M 0,1.31 Q 0,1.31 -1.16,1.31 -2.32,1.30 -4.08,0.89 -5.83,0.48 -7.05,0.40 -8.26,0.32 -9.41,-0.10 -10.55,-0.53 -11.74,-0.97 -12.93,-1.41 -13.95,-1.90 -14.98,-2.40 -15.98,-2.89 -16.99,-3.39 -18.00,-3.90 -19.01,-4.40 -20.52,-5.40 -22.03,-6.39 -23.09,-7.37 -24.16,-8.34 -25.53,-9.29 -26.90,-10.25 -27.58,-11.16 -28.25,-12.08 -29.41,-13.09 -30.56,-14.10 -32.11,-15.48 -33.65,-16.86 -34.87,-18.05 -36.09,-19.24 -37.41,-20.56 -38.74,-21.89 -39.93,-23.07 -41.11,-24.25 -41.72,-25.17 -42.32,-26.08 -43.07,-26.93 -43.81,-27.78 -44.49,-28.81 -45.17,-29.85 -46.19,-31.06 -47.20,-32.26 -47.78,-33.17 -48.36,-34.09 -48.88,-35.04 -49.40,-36.00 -49.91,-36.98 -50.42,-37.96 -50.92,-38.95 -51.43,-39.94 -51.93,-40.94 -52.43,-41.93 -52.93,-42.93 -53.43,-43.93 -54.42,-45.50 -55.40,-47.06 -55.68,-48.18 -55.96,-49.30 -56.75,-51.15 -57.53,-52.99 -58.02,-54.31 -58.52,-55.64 -59.01,-57.06 -59.51,-58.48 -60.01,-59.95 -60.51,-61.42 -60.75,-63.02 -60.98,-64.62 -61.08,-66.16 -61.17,-67.71 -61.49,-69.10 -61.80,-70.50 -62.22,-72.28 -62.64,-74.05 -62.84,-76.05 -63.03,-78.05 -63.39,-79.64 -63.74,-81.24 -63.91,-82.89 -64.07,-84.54 -64.14,-86.40 -64.21,-88.26 -64.24,-89.91 -64.27,-91.55 -64.56,-93.31 -64.85,-95.06 -64.98,-96.46 -65.11,-97.86 -65.17,-99.63 -65.23,-101.40 -65.25,-103.01 -65.27,-104.62 -65.28,-106.16 -65.29,-107.71 -65.30,-109.23 -65.30,-110.75 -65.30,-112.26 -65.31,-113.77 -65.31,-114.98 -65.31,-116.20 -65.31,-117.86 -65.31,-119.53 -65.31,-120.81 -65.31,-122.10 -65.31,-123.51 -65.31,-124.91 -65.31,-126.09 -65.31,-127.26 -65.31,-128.62 -65.31,-129.98 -65.31,-131.14 -65.31,-132.29 -65.31,-133.36 -65.31,-134.42 -65.31,-135.74 -65.31,-137.05 -65.31,-138.47 -65.31,-139.89 -65.31,-141.07 -65.31,-142.25 -65.31,-143.62 -65.31,-144.98 -65.31,-146.71 -65.31,-148.44 -65.31,-149.75 -65.31,-151.06 -65.31,-152.19 -65.31,-153.32 -65.31,-155.11 -65.31,-156.91 -65.31,-158.08 -65.31,-159.26 -65.31,-160.95 -65.31,-162.65 -65.31,-164.60 -65.31,-166.54 -65.31,-167.85 -65.30,-169.15 -64.98,-170.18 -64.66,-171.20 -64.52,-172.65 -64.38,-174.10 -64.03,-175.13 -63.69,-176.16 -63.54,-177.22 -63.38,-178.29 -63.03,-179.78 -62.67,-181.27 -62.14,-182.56 -61.62,-183.85 -61.10,-185.39 -60.58,-186.93 -60.10,-188.80 -59.63,-190.67 -59.08,-191.88 -58.53,-193.10 -57.31,-195.41 -56.08,-197.73 -55.94,-197.88 -55.79,-198.04 -55.61,-198.14 -55.42,-198.24 -55.21,-198.27 -55.00,-198.31 -54.79,-198.27 -54.58,-198.24 -54.39,-198.14 -54.20,-198.04 -54.06,-197.89 -53.91,-197.73 -53.82,-197.54 -53.73,-197.35 -53.71,-197.14 -53.68,-196.93 -53.73,-196.72 -53.77,-196.51 -53.88,-196.33 -53.99,-196.15 -54.15,-196.01 -54.32,-195.87 -54.51,-195.79 -54.71,-195.71 -54.92,-195.70 -55.13,-195.69 -55.34,-195.75 -55.54,-195.80 -55.72,-195.92 -55.90,-196.04 -56.02,-196.21 -56.15,-196.38 -56.22,-196.58 -56.29,-196.78 -56.29,-196.99 -56.29,-197.20 -56.22,-197.41 -56.16,-197.61 -56.03,-197.78 -55.90,-197.95 -55.72,-198.07 -55.55,-198.19 -55.34,-198.24 -55.14,-198.30 -54.93,-198.29 -54.72,-198.28 -54.52,-198.20 -54.32,-198.12 -54.16,-197.98 -54.00,-197.85 -53.89,-197.67 -53.78,-197.48 -53.73,-197.28 -53.68,-197.07 -53.71,-196.86 -53.73,-196.65 -53.82,-196.45 -53.91,-196.26 -53.91,-196.26 -53.91,-196.26 -54.94,-194.38 -55.98,-192.50 -56.27,-191.46 -56.55,-190.43 -57.16,-189.56 -57.78,-188.70 -58.29,-186.87 -58.80,-185.03 -59.09,-183.77 -59.38,-182.50 -59.79,-181.43 -60.20,-180.36 -60.49,-179.19 -60.77,-178.03 -60.99,-176.65 -61.22,-175.28 -61.54,-173.87 -61.87,-172.46 -62.28,-170.78 -62.69,-169.10 -62.68,-167.82 -62.68,-166.54 -62.68,-164.60 -62.68,-162.65 -62.68,-160.95 -62.68,-159.26 -62.68,-158.08 -62.68,-156.91 -62.68,-155.11 -62.68,-153.32 -62.68,-152.19 -62.68,-151.06 -62.68,-149.75 -62.68,-148.44 -62.68,-146.71 -62.68,-144.98 -62.68,-143.62 -62.68,-142.25 -62.68,-141.07 -62.68,-139.89 -62.68,-138.47 -62.68,-137.05 -62.68,-135.74 -62.68,-134.42 -62.68,-133.36 -62.68,-132.29 -62.68,-131.14 -62.68,-129.98 -62.68,-128.62 -62.68,-127.26 -62.68,-126.09 -62.68,-124.91 -62.68,-123.51 -62.68,-122.10 -62.68,-120.81 -62.68,-119.53 -62.68,-117.87 -62.68,-116.20 -62.68,-114.98 -62.68,-113.77 -62.68,-112.26 -62.68,-110.76 -62.67,-109.24 -62.67,-107.73 -62.66,-106.19 -62.65,-104.65 -62.63,-103.07 -62.60,-101.48 -62.55,-99.80 -62.50,-98.11 -62.38,-96.79 -62.26,-95.48 -61.95,-93.54 -61.64,-91.60 -61.61,-89.98 -61.59,-88.35 -61.52,-86.58 -61.46,-84.80 -61.32,-83.30 -61.17,-81.80 -60.80,-80.05 -60.42,-78.30 -60.25,-76.48 -60.09,-74.66 -59.66,-72.86 -59.23,-71.06 -58.89,-69.47 -58.55,-67.87 -58.47,-66.43 -58.38,-64.99 -58.20,-63.62 -58.02,-62.25 -57.52,-60.80 -57.03,-59.35 -56.54,-57.95 -56.06,-56.56 -55.60,-55.31 -55.14,-54.07 -54.67,-53.05 -54.21,-52.02 -53.66,-50.18 -53.11,-48.33 -52.10,-46.72 -51.08,-45.11 -50.58,-44.11 -50.08,-43.12 -49.58,-42.12 -49.08,-41.13 -48.59,-40.15 -48.09,-39.17 -47.11,-37.32 -46.12,-35.47 -45.14,-34.12 -44.15,-32.78 -42.99,-31.14 -41.82,-29.49 -40.53,-27.80 -39.24,-26.10 -38.07,-24.92 -36.89,-23.75 -35.56,-22.43 -34.24,-21.11 -33.05,-19.94 -31.85,-18.77 -30.46,-17.51 -29.07,-16.26 -28.15,-15.59 -27.23,-14.93 -26.24,-13.60 -25.25,-12.28 -23.80,-11.26 -22.35,-10.25 -21.07,-9.10 -19.79,-7.95 -18.64,-7.25 -17.50,-6.55 -16.51,-6.06 -15.52,-5.56 -14.53,-5.07 -13.53,-4.58 -12.29,-3.89 -11.05,-3.20 -9.54,-2.73 -8.03,-2.26 -6.76,-2.19 -5.48,-2.12 -3.87,-1.71 -2.27,-1.30 -1.13,-1.31 0,-1.31 0.15,-1.29 0.31,-1.27 0.46,-1.21 0.61,-1.16 0.74,-1.07 0.87,-0.98 0.97,-0.86 1.08,-0.74 1.15,-0.60 1.22,-0.46 1.26,-0.31 1.30,-0.15 1.30,0.00 1.30,0.15 1.26,0.31 1.22,0.46 1.15,0.60 1.08,0.74 0.97,0.86 0.87,0.98 0.74,1.07 0.61,1.16 0.46,1.21 0.31,1.27 0.15,1.29 -0.00,1.31 -0.00,1.31 L 0,1.31 Z"></path></g><g transform="translate(193 220) rotate(0 9.5 -3.5)" stroke="none"><path d="M1.23 -1.06 L0.4 0.03 L1.81 -2.4 L3.47 -2.49 L2.81 -4.6 L3.3 -2.96 L7.08 -6.29 L10.59 -7.39 L10.16 -7.8 L11.7 -8.44 L14.26 -9.17 L16.71 -10.48 L16.31 -12.09 L18.37 -12.57 L17.89 -12.97 L19.13 -10.44 L19.3 -11.87 L18.12 -8.51 L16.5 -7.59 L17.15 -2.92 L19.17 -3.56 L18.72 0.56 L19.64 1.05 L17.04 -0.58 L19.95 3.43 L17.97 2.49 L19.84 3.04 L20.09 3.9 L16.7 6.68 L16.66 5.11 L14.64 4.46 L12.6 2.87 L9.44 -0.22 L6.57 0.26 L6.58 -1.61 L4.86 -0.34 L3.22 1.32 L1.49 -0.23 L-0.8 0.93 L1.15 -0.39" stroke="none" stroke-width="0" fill="#4c6ef5" fill-rule="evenodd"></path><path fill="#364fc7" d="M -0.78,-1.05 Q -0.78,-1.05 0.36,-1.91 1.51,-2.77 3.23,-4.02 4.96,-5.27 5.84,-6.03 6.73,-6.79 8.37,-8.04 10.01,-9.28 11.60,-9.95 13.19,-10.62 14.39,-11.23 15.59,-11.84 15.96,-12.16 16.32,-12.48 16.42,-12.60 16.52,-12.72 16.65,-12.81 16.78,-12.91 16.92,-12.97 17.07,-13.03 17.23,-13.05 17.38,-13.08 17.54,-13.06 17.70,-13.05 17.85,-12.99 18.00,-12.94 18.13,-12.86 18.26,-12.77 18.37,-12.65 18.48,-12.54 18.56,-12.40 18.63,-12.26 18.68,-12.11 18.72,-11.96 18.72,-11.80 18.73,-11.64 18.69,-11.49 18.66,-11.33 18.59,-11.19 18.52,-11.05 18.89,-9.22 19.26,-7.40 19.69,-5.51 20.11,-3.62 20.19,-2.27 20.27,-0.91 20.29,0.15 20.30,1.22 20.20,2.95 20.09,4.68 18.56,5.08 17.03,5.47 15.58,4.59 14.13,3.72 12.89,3.33 11.66,2.94 10.58,2.77 9.50,2.59 8.33,2.19 7.15,1.79 5.55,1.60 3.95,1.40 1.96,1.36 -0.01,1.31 -0.22,1.27 -0.43,1.24 -0.61,1.13 -0.80,1.03 -0.94,0.88 -1.09,0.72 -1.18,0.53 -1.26,0.33 -1.28,0.12 -1.31,-0.08 -1.26,-0.29 -1.21,-0.49 -1.10,-0.67 -0.99,-0.86 -0.82,-0.99 -0.66,-1.13 -0.46,-1.20 -0.26,-1.28 -0.05,-1.29 0.15,-1.30 0.35,-1.24 0.56,-1.18 0.73,-1.06 0.91,-0.94 1.03,-0.77 1.16,-0.60 1.23,-0.40 1.29,-0.19 1.29,0.01 1.29,0.22 1.22,0.42 1.15,0.62 1.02,0.79 0.89,0.96 0.71,1.08 0.53,1.19 0.33,1.25 0.12,1.30 -0.08,1.29 -0.29,1.27 -0.49,1.19 -0.68,1.11 -0.84,0.97 -1.00,0.83 -1.11,0.65 -1.22,0.47 -1.26,0.26 -1.31,0.05 -1.28,-0.15 -1.26,-0.36 -1.17,-0.55 -1.07,-0.74 -0.93,-0.90 -0.78,-1.05 -0.59,-1.15 -0.40,-1.24 -0.19,-1.28 0.01,-1.31 0.01,-1.31 0.01,-1.31 2.86,-1.18 5.72,-1.06 7.84,-0.52 9.96,0.00 11.23,0.23 12.49,0.46 14.07,1.02 15.65,1.59 16.67,2.42 17.68,3.25 17.67,1.74 17.67,0.22 17.64,-0.85 17.61,-1.94 17.45,-3.48 17.30,-5.03 16.97,-6.16 16.64,-7.29 16.57,-8.82 16.50,-10.35 16.41,-11.41 16.32,-12.48 16.42,-12.60 16.52,-12.72 16.65,-12.81 16.78,-12.91 16.92,-12.97 17.07,-13.03 17.23,-13.05 17.38,-13.08 17.54,-13.06 17.70,-13.05 17.85,-12.99 18.00,-12.94 18.13,-12.86 18.26,-12.77 18.37,-12.65 18.48,-12.54 18.56,-12.40 18.63,-12.26 18.68,-12.11 18.72,-11.96 18.72,-11.80 18.73,-11.64 18.69,-11.49 18.66,-11.33 18.59,-11.19 18.52,-11.05 17.63,-10.31 16.73,-9.58 15.50,-8.90 14.28,-8.23 12.84,-7.64 11.41,-7.06 9.92,-5.93 8.43,-4.79 7.39,-3.92 6.35,-3.05 4.72,-1.86 3.08,-0.67 1.93,0.18 0.78,1.05 0.65,1.12 0.51,1.20 0.36,1.25 0.20,1.29 0.05,1.30 -0.10,1.30 -0.26,1.27 -0.41,1.24 -0.56,1.17 -0.70,1.10 -0.82,1.00 -0.94,0.90 -1.04,0.78 -1.13,0.65 -1.19,0.50 -1.26,0.36 -1.28,0.20 -1.31,0.05 -1.29,-0.10 -1.28,-0.26 -1.23,-0.41 -1.18,-0.56 -1.10,-0.69 -1.01,-0.83 -0.90,-0.94 -0.78,-1.05 -0.78,-1.05 L -0.78,-1.05 Z"></path></g><g transform="translate(488 384) rotate(0 -2 10)" stroke="none"><path d="M0.94 -0.26 L1.97 2.84 L-0.45 1.25 L-2.84 0.41 L-3.43 2.67 L-3.52 2.63 L-4.87 4.56 L-3.08 5.74 L-4.96 4.82 L-6.88 5.27 L-4.19 7.65 L-6.55 9.07 L-7.36 8.54 L-6.07 10.33 L-9.6 9.34 L-9.71 10.51 L-8.34 10.16 L-7.05 11.4 L-8.33 13.47 L-9.01 15.12 L-8.62 13.02 L-9.79 16.08 L-7.59 15.88 L-7.92 16 L-5.91 16.44 L-3.24 14.94 L-5.58 14.4 L-4.9 16.24 L-4.91 15.77 L-0.37 15.57 L-2.52 17.87 L-1.41 16.92 L0.66 16.34 L3.87 16.56 L1.39 19.13 L1.08 19.12 L4.1 20.49 L5.51 17.5 L3.93 19.01 L7.13 20.93 L7.68 18.56 L4.59 16.96 L5.88 16.34 L4.26 16.44 L7.71 14.87 L6.16 14.54 L6.05 12.97 L5.01 9.74 L6.47 8.78 L6.24 9.82 L6.21 8.73 L4.94 8.9 L6.24 6.6 L5.88 6.39 L4.17 5.46 L4.56 5.02 L2.32 1.68 L2.13 2.83 L3.7 1.98 L-0.57 -1.82" stroke="none" stroke-width="0" fill="#40c057" fill-rule="evenodd"></path><path fill="#5c940d" d="M 1.09,0.72 Q 1.09,0.72 0.51,1.58 -0.05,2.44 -0.82,3.50 -1.59,4.57 -2.55,5.52 -3.51,6.48 -4.60,7.59 -5.69,8.71 -6.18,9.80 -6.68,10.88 -7.55,12.00 -8.43,13.12 -7.39,13.82 -6.35,14.53 -4.85,15.11 -3.36,15.70 -2.18,16.06 -1.00,16.43 0.15,16.54 1.32,16.65 2.47,17.17 3.62,17.70 4.65,18.21 5.68,18.73 5.17,17.70 4.66,16.67 4.67,15.29 4.68,13.90 4.68,12.83 4.68,11.76 4.30,10.36 3.92,8.95 3.61,7.67 3.30,6.38 3.05,5.16 2.79,3.93 1.08,2.54 -0.62,1.15 -0.79,1.02 -0.96,0.89 -1.08,0.71 -1.19,0.53 -1.25,0.33 -1.30,0.12 -1.29,-0.08 -1.27,-0.29 -1.19,-0.49 -1.11,-0.68 -0.97,-0.84 -0.83,-1.01 -0.65,-1.11 -0.47,-1.22 -0.26,-1.26 -0.05,-1.31 0.15,-1.28 0.36,-1.26 0.55,-1.17 0.74,-1.07 0.90,-0.93 1.05,-0.78 1.15,-0.59 1.24,-0.40 1.28,-0.19 1.31,0.01 1.27,0.22 1.23,0.43 1.13,0.61 1.03,0.80 0.88,0.95 0.72,1.09 0.53,1.18 0.33,1.26 0.12,1.28 -0.08,1.31 -0.29,1.26 -0.49,1.21 -0.68,1.10 -0.86,0.99 -0.99,0.82 -1.13,0.66 -1.20,0.46 -1.28,0.26 -1.29,0.05 -1.30,-0.15 -1.24,-0.36 -1.18,-0.56 -1.06,-0.73 -0.94,-0.91 -0.77,-1.04 -0.60,-1.16 -0.40,-1.23 -0.19,-1.29 0.01,-1.29 0.22,-1.29 0.42,-1.22 0.62,-1.15 0.62,-1.15 0.62,-1.15 2.60,0.45 4.58,2.06 5.02,3.23 5.45,4.41 5.89,5.49 6.32,6.57 6.71,7.94 7.10,9.32 7.20,11.06 7.31,12.81 7.30,13.98 7.30,15.15 7.25,16.97 7.19,18.79 6.67,19.72 6.16,20.66 4.59,20.36 3.03,20.06 1.57,19.64 0.11,19.22 -1.37,18.71 -2.87,18.20 -4.37,17.71 -5.88,17.21 -7.39,16.67 -8.91,16.13 -9.94,15.40 -10.97,14.68 -10.75,13.11 -10.52,11.55 -9.89,10.62 -9.25,9.70 -8.61,8.81 -7.96,7.92 -7.09,6.67 -6.22,5.42 -5.01,4.57 -3.80,3.72 -3.02,2.36 -2.24,1.00 -1.66,0.13 -1.09,-0.72 -0.98,-0.84 -0.88,-0.96 -0.75,-1.06 -0.62,-1.15 -0.48,-1.21 -0.33,-1.26 -0.17,-1.29 -0.02,-1.31 0.13,-1.29 0.29,-1.28 0.44,-1.22 0.59,-1.17 0.72,-1.08 0.85,-0.99 0.96,-0.88 1.06,-0.76 1.14,-0.62 1.22,-0.48 1.26,-0.33 1.30,-0.17 1.30,-0.02 1.30,0.13 1.27,0.29 1.23,0.44 1.16,0.58 1.09,0.72 1.09,0.72 L 1.09,0.72 Z"></path></g><g stroke-linecap="round" transform="translate(130 10) rotate(0 266 126)"><path d="M0.78 -0.77 C161.9 -1.19, 324.35 -1.83, 531.38 -0.43 M530.82 -1.04 C533.13 55.8, 531.71 113.13, 531.45 250.81 M532.75 252.64 C374.36 253.7, 217.69 253.14, 0.72 252.02 M1.18 250.7 C2.69 184.95, 1.7 117.76, 0.95 -0.32" stroke="#495057" stroke-width="1.5" fill="none" stroke-dasharray="8 9"></path></g><g transform="translate(293 20) rotate(0 99 17.5)"><text x="0" y="25" font-family="Virgil, Segoe UI Emoji" font-size="28px" fill="#495057" text-anchor="start" style="white-space: pre;" direction="ltr">Command layer</text></g><g transform="translate(207 302) rotate(0 105 10)"><text x="0" y="14" font-family="Virgil, Segoe UI Emoji" font-size="16px" fill="#364fc7" text-anchor="start" style="white-space: pre;" direction="ltr">1. fetch events from store</text></g><g transform="translate(575 310) rotate(0 87.5 20)"><text x="0" y="14" font-family="Virgil, Segoe UI Emoji" font-size="16px" fill="#5c940d" text-anchor="start" style="white-space: pre;" direction="ltr">5. append new events </text><text x="0" y="34" font-family="Virgil, Segoe UI Emoji" font-size="16px" fill="#5c940d" text-anchor="start" style="white-space: pre;" direction="ltr">to store</text></g><g transform="translate(138 82) rotate(0 83 10)"><text x="0" y="14" font-family="Virgil, Segoe UI Emoji" font-size="16px" fill="#364fc7" text-anchor="start" style="white-space: pre;" direction="ltr">2. build entity state</text></g><g stroke-linecap="round"><g transform="translate(66 136.36266188767522) rotate(0 20.084864250938438 -0.20661547895070953)"><path d="M0.23 0.1 C7.15 0.15, 34.38 0.92, 41.27 0.82 M-1.1 -0.89 C5.7 -1.27, 33.42 -1.32, 40.47 -1.13" stroke="#495057" stroke-width="1" fill="none"></path></g><g transform="translate(66 136.36266188767522) rotate(0 20.084864250938438 -0.20661547895070953)"><path d="M21.31 6.15 C27.08 4.77, 30.25 0.52, 39.59 -0.3 M20.23 6.19 C27.76 2.97, 33.92 1.98, 40.54 -2.09" stroke="#495057" stroke-width="1" fill="none"></path></g><g transform="translate(66 136.36266188767522) rotate(0 20.084864250938438 -0.20661547895070953)"><path d="M21.44 -7.87 C27.24 -5.33, 30.38 -5.65, 39.59 -0.3 M20.36 -7.83 C27.92 -6.36, 34.03 -2.65, 40.54 -2.09" stroke="#495057" stroke-width="1" fill="none"></path></g></g><g transform="translate(10 121.5) rotate(0 27 12.5)"><text x="0" y="18" font-family="Virgil, Segoe UI Emoji" font-size="20px" fill="#495057" text-anchor="start" style="white-space: pre;" direction="ltr">Input</text></g><g transform="translate(720 126.5) rotate(0 35.5 12.5)"><text x="0" y="18" font-family="Virgil, Segoe UI Emoji" font-size="20px" fill="#495057" text-anchor="start" style="white-space: pre;" direction="ltr">Output</text></g><g stroke-linecap="round"><g transform="translate(685 138) rotate(0 15.217016772492798 -0.37221123851503535)"><path d="M-0.22 0.36 C5.02 0.28, 26.8 0.66, 32.23 0.55 M-1.8 -0.5 C3.24 -0.41, 25.81 -1.51, 31.41 -1.28" stroke="#495057" stroke-width="1" fill="none"></path></g><g transform="translate(685 138) rotate(0 15.217016772492798 -0.37221123851503535)"><path d="M16.91 4.65 C22.58 2.82, 26.92 1.62, 30.73 -1.42 M15.91 4.13 C20.08 2.46, 25.78 1.27, 30.86 -1.29" stroke="#495057" stroke-width="1" fill="none"></path></g><g transform="translate(685 138) rotate(0 15.217016772492798 -0.37221123851503535)"><path d="M16.8 -6.29 C22.6 -4.13, 26.98 -1.34, 30.73 -1.42 M15.8 -6.82 C20.04 -5.27, 25.78 -3.24, 30.86 -1.29" stroke="#495057" stroke-width="1" fill="none"></path></g></g></svg>